<svg xmlns="http://www.w3.org/2000/svg" xmlns:xlink="http://www.w3.org/1999/xlink" width="40" zoomAndPan="magnify" viewBox="0 0 30 30.000001" height="40" preserveAspectRatio="xMidYMid meet" version="1.0"><defs><g/><clipPath id="b43dc6470e"><path d="M 2.175781 6.007812 L 26.597656 6.007812 L 26.597656 22.699219 L 2.175781 22.699219 Z M 2.175781 6.007812 " clip-rule="nonzero"/></clipPath></defs><g clip-path="url(#b43dc6470e)"><path fill="#2e1b22" d="M 14.386719 6.007812 C 21.128906 6.007812 26.597656 11.472656 26.597656 18.214844 C 26.597656 19.027344 26.519531 19.820312 26.367188 20.585938 C 23.875 20.09375 21.839844 19.539062 19.285156 18.523438 C 21.734375 19.855469 24.125 20.570312 26.242188 21.15625 C 26.183594 21.394531 26.117188 21.625 26.046875 21.855469 C 24.03125 21.160156 21.738281 20.226562 20.292969 19.417969 C 19.792969 19.140625 19.394531 18.875 19.148438 18.644531 C 18.9375 18.449219 18.84375 18.289062 18.914062 18.179688 C 18.9375 18.144531 18.976562 18.109375 19.039062 18.078125 L 19.113281 18.039062 C 20.046875 17.550781 23.84375 15.570312 24.109375 14.597656 C 24.179688 14.34375 24.066406 14.152344 23.699219 14.050781 C 21.476562 13.4375 18.375 13.199219 15.183594 12.996094 C 11.664062 12.773438 6.835938 12.902344 4.058594 13.019531 C 6.703125 13.035156 10.589844 13.078125 13.722656 13.304688 C 16.097656 13.480469 18.378906 13.757812 20.363281 14.1875 C 20.683594 14.257812 20.816406 14.328125 20.800781 14.402344 C 20.707031 14.847656 18.195312 15.683594 15.003906 16.746094 C 10.796875 18.152344 5.417969 19.941406 2.738281 21.875 C 2.660156 21.632812 2.589844 21.386719 2.53125 21.140625 C 7.882812 18.226562 14.160156 16.960938 19.765625 14.757812 C 14.007812 16.816406 8.117188 17.625 2.386719 20.480469 C 2.25 19.746094 2.175781 18.992188 2.175781 18.214844 C 2.175781 11.472656 7.644531 6.007812 14.386719 6.007812 Z M 16.046875 23.015625 C 14.660156 23.007812 12.925781 22.996094 11.539062 22.984375 C 11.605469 21.804688 12.242188 19.992188 13.28125 18.949219 L 14.65625 18.949219 C 14.46875 19.816406 14.792969 21.582031 16.046875 23.015625 Z M 13.691406 18.597656 C 13.898438 18.445312 14.121094 18.328125 14.355469 18.25 C 14.777344 18.105469 15.253906 17.9375 15.761719 17.746094 L 16.527344 17.746094 C 16.007812 17.980469 15.484375 18.207031 14.964844 18.441406 C 14.898438 18.46875 14.839844 18.523438 14.792969 18.597656 Z M 16.523438 17.453125 C 17.054688 17.246094 17.605469 17.019531 18.152344 16.78125 L 18.621094 16.78125 C 18.144531 17.011719 17.664062 17.234375 17.179688 17.453125 Z M 18.617188 16.574219 C 20.101562 15.902344 21.527344 15.148438 22.441406 14.421875 C 22.765625 14.164062 21.742188 13.957031 19.746094 13.652344 C 21.902344 13.917969 22.933594 14.179688 22.5625 14.453125 C 21.445312 15.28125 20.261719 15.960938 19.035156 16.574219 L 18.617188 16.574219 " fill-opacity="1" fill-rule="evenodd"/></g><g fill="#2e1b22" fill-opacity="1"><g transform="translate(14.603074, 9.435486)"><g><path d="M 0.703125 -0.171875 L 0.75 -0.0625 C 0.726562 -0.03125 0.695312 -0.0078125 0.65625 0 C 0.613281 0.0078125 0.570312 0.015625 0.53125 0.015625 C 0.332031 0.015625 0.234375 -0.0820312 0.234375 -0.28125 L 0.234375 -0.921875 L 0.046875 -0.921875 L 0.046875 -1.046875 L 0.234375 -1.046875 L 0.234375 -1.265625 L 0.390625 -1.296875 L 0.390625 -1.046875 L 0.71875 -1.046875 L 0.71875 -0.921875 L 0.390625 -0.921875 L 0.390625 -0.296875 C 0.390625 -0.179688 0.441406 -0.125 0.546875 -0.125 C 0.597656 -0.125 0.644531 -0.140625 0.6875 -0.171875 Z M 0.703125 -0.171875 "/></g></g></g></svg>